<?xml version="1.0" encoding="UTF-8"?>
<svg xmlns="http://www.w3.org/2000/svg" xmlns:xlink="http://www.w3.org/1999/xlink">
    <symbol id="github" viewBox="0 0 16 16">
        <path fill-rule="evenodd" d="M8 0C3.58 0 0 3.58 0 8c0 3.54 2.29 6.53 5.47 7.59.4.07.55-.17.55-.38 0-.19-.01-.82-.01-1.49-2.01.37-2.53-.49-2.69-.94-.09-.23-.48-.94-.82-1.13-.28-.15-.68-.52-.01-.53.63-.01 1.08.58 1.23.82.72 1.21 1.87.87 2.33.66.07-.52.28-.87.51-1.07-1.78-.2-3.64-.89-3.64-3.95 0-.87.31-1.59.82-2.15-.08-.2-.36-1.02.08-2.12 0 0 .67-.21 2.2.82.64-.18 1.32-.27 2-.27.68 0 1.36.09 2 .27 1.53-1.04 2.2-.82 2.2-.82.44 1.1.16 1.92.08 2.12.51.56.82 1.27.82 2.15 0 3.07-1.87 3.75-3.65 3.95.29.25.54.73.54 1.48 0 1.07-.01 1.93-.01 2.2 0 .21.15.46.55.38A8.013 8.013 0 0016 8c0-4.42-3.58-8-8-8z" fill="currentColor"></path>
    </symbol>
    <symbol id="fb" viewBox="0 0 24 24">
        <path d="M24 12.0003C24 5.37285 18.6274 0.000270844 12 0.000270844C5.37258 0.000270844 0 5.37285 0 12.0003C0 17.9898 4.38823 22.9543 10.125 23.8545V15.469H7.07813V12.0003H10.125V9.35652C10.125 6.34902 11.9165 4.68777 14.6576 4.68777C15.9705 4.68777 17.3438 4.92215 17.3438 4.92215V7.87527H15.8306C14.3399 7.87527 13.875 8.80028 13.875 9.74926V12.0003H17.2031L16.6711 15.469H13.875V23.8545C19.6118 22.9543 24 17.9898 24 12.0003Z" fill="currentColor"/>   
        <path d="M16.6711 15.4688L17.2032 12H13.875V9.74899C13.875 8.80001 14.3399 7.875 15.8306 7.875H17.3438V4.92188C17.3438 4.92188 15.9705 4.6875 14.6576 4.6875C11.9165 4.6875 10.125 6.34875 10.125 9.35625V12H7.07812V15.4688H10.125V23.8542C10.736 23.9501 11.3621 24 12 24C12.6379 24 13.2641 23.9501 13.875 23.8542V15.4688H16.6711Z" fill="white"/>
    </symbol>
</svg>                    
